# xmcd
#
# Track frame offsets:
#	150
#	20617
#	35902
#	57127
#	72192
#	91177
#	115045
#	128225
#	156572
#	172125
#	195784
#	211667
#	227387
#	242025
#	250290
#	257780
#	280077
#	297185
#	319755
#
# Disc length: 4450 seconds
#
# Revision: 1
# Processed by: cddbd v1.5.2PL0 Copyright (c) Steve Scherf et al.
# Submitted via: EZCDAudioConverter 6.0.8.1
#
DISCID=0c116013
DTITLE=Reba McEntire - Reba Live
DYEAR=1989
DGENRE=Country
TTITLE0=So, So, So Long
TTITLE1=One Promise Too Late
TTITLE2=Let The Music Lift You Up
TTITLE3=Little Rock
TTITLE4=New Fool At An Old Game
TTITLE5=Little Girl
TTITLE6=Can't Stop Now
TTITLE7=Sunday Kind Of Love
TTITLE8=I Know How He Feels
TTITLE9=Whoever's In New England
TTITLE10=Cathy's Clown
TTITLE11=You Must Really Love Me
TTITLE12=Somebody Up There Likes Me
TTITLE13=San Antonio Rose
TTITLE14=Mama Tried
TTITLE15=Night Life
TTITLE16=Jolene
TTITLE17=Sweet Dreams
TTITLE18=Respect
EXTD=
EXTT0=
EXTT1=
EXTT2=
EXTT3=
EXTT4=
EXTT5=
EXTT6=
EXTT7=
EXTT8=
EXTT9=
EXTT10=
EXTT11=
EXTT12=
EXTT13=
EXTT14=
EXTT15=
EXTT16=
EXTT17=
EXTT18=
PLAYORDER=
